<svg width="946" height="686" fill="none" xmlns="http://www.w3.org/2000/svg"><circle cx="172" cy="172" r="172" fill="url(#a)"/><circle cx="506" cy="514" r="172" fill="url(#b)"/><circle cx="822" cy="374" r="124" fill="url(#c)"/><circle cx="70" cy="465" r="35" fill="url(#d)"/><rect x="157" y="52" width="701" height="567" rx="6" fill="#FAFAFA"/><g filter="url(#e)"><path d="M157 58a6 6 0 0 1 6-6h689a6 6 0 0 1 6 6v37H157V58z" fill="#2272E2"/></g><path fill-rule="evenodd" clip-rule="evenodd" d="M800.047 182.13H200v-.492h600.047v.492z" fill="#E9E9E9"/><path fill-rule="evenodd" clip-rule="evenodd" d="M202.954 160.846a3.44 3.44 0 0 1 3.445-3.438 3.44 3.44 0 0 1 3.446 3.438c0 2.048-2.176 4.873-3.067 5.948a.489.489 0 0 1-.753 0c-.896-1.075-3.071-3.9-3.071-5.948zm2.215 0a1.23 1.23 0 0 0 2.461 0 1.23 1.23 0 0 0-2.461 0z" fill="#29CC9E"/><rect x="200.5" y="205.5" width="322" height="198" rx="3.5" fill="#F7F7F7" stroke="#E9E9E9"/><rect x="535.5" y="208.5" width="124" height="90" rx="3.5" fill="#EEE" stroke="#E9E9E9"/><rect x="535.5" y="312.5" width="124" height="91" rx="3.5" fill="#EEE" stroke="#E9E9E9"/><rect x="671.5" y="208.5" width="124" height="90" rx="3.5" fill="#EEE" stroke="#E9E9E9"/><rect x="671.5" y="312.5" width="124" height="91" rx="3.5" fill="#EEE" stroke="#E9E9E9"/><rect x="536" y="430" width="260" height="173" rx="4" fill="#E9F2FF"/><rect x="206.25" y="477.25" width="41.5" height="41.5" rx="5.75" fill="#D2D2D2" stroke="#D8D8D8" stroke-width=".5"/><rect x="322.25" y="477.25" width="41.5" height="41.5" rx="5.75" fill="#D2D2D2" stroke="#D8D8D8" stroke-width=".5"/><rect x="264.25" y="477.25" width="41.5" height="41.5" rx="5.75" fill="#D2D2D2" stroke="#D8D8D8" stroke-width=".5"/><rect x="380.25" y="477.25" width="41.5" height="41.5" rx="5.75" fill="#D2D2D2" stroke="#D8D8D8" stroke-width=".5"/><rect x="584" y="545" width="159" height="32" rx="16" fill="#D5D5D5"/><rect x="584" y="546" width="159" height="32" rx="16" fill="#2272E2"/><rect x="206.25" y="539.25" width="296.5" height="7.5" rx="3.75" fill="#fff" stroke="#D8D8D8" stroke-width=".5"/><rect x="203.25" y="430.25" width="296.5" height="7.5" rx="3.75" fill="#fff" stroke="#D8D8D8" stroke-width=".5"/><rect x="216" y="158" width="239" height="8" rx="4" fill="#69DBBB"/><rect x="206.25" y="577.25" width="274.5" height="7.5" rx="3.75" fill="#fff" stroke="#D8D8D8" stroke-width=".5"/><rect x="206.25" y="558.25" width="258.5" height="7.5" rx="3.75" fill="#fff" stroke="#D8D8D8" stroke-width=".5"/><rect x="203.25" y="449.25" width="258.5" height="7.5" rx="3.75" fill="#fff" stroke="#D8D8D8" stroke-width=".5"/><rect x="206.25" y="595.25" width="296.5" height="7.5" rx="3.75" fill="#fff" stroke="#D8D8D8" stroke-width=".5"/><circle cx="177" cy="73" r="5" fill="#fff"/><circle cx="191" cy="73" r="5" fill="#fff"/><circle cx="205" cy="73" r="5" fill="#fff"/><path d="M206.906 142.431h2.551v-7.407c0-.287.008-.589.026-.905l-1.811 1.529a.655.655 0 0 1-.235.132.778.778 0 0 1-.549-.035.657.657 0 0 1-.209-.176l-.679-.94 3.84-3.295h1.767v11.097h2.264v1.626h-6.965v-1.626zM219.207 144.057V131h2.151v5.149a4.154 4.154 0 0 1 1.201-.905c.447-.229.97-.343 1.568-.343.487 0 .931.103 1.332.308a2.9 2.9 0 0 1 1.045.878c.296.387.522.864.679 1.432.162.569.243 1.222.243 1.96 0 .673-.09 1.297-.269 1.871a4.565 4.565 0 0 1-.775 1.494 3.557 3.557 0 0 1-1.211.993c-.47.234-.998.351-1.584.351-.273 0-.523-.029-.749-.088a2.466 2.466 0 0 1-.618-.228 2.93 2.93 0 0 1-.523-.36 5.374 5.374 0 0 1-.452-.483l-.096.606c-.035.152-.096.26-.183.325a.535.535 0 0 1-.34.097h-1.419zm4.179-7.469c-.446 0-.83.097-1.149.29a3.295 3.295 0 0 0-.879.8v4.041c.244.305.508.519.792.642.29.117.604.176.94.176.326 0 .619-.062.88-.185s.482-.31.662-.562c.185-.252.328-.569.426-.949.099-.387.148-.841.148-1.362 0-.527-.043-.973-.13-1.336-.082-.369-.201-.667-.357-.896a1.437 1.437 0 0 0-.575-.501 1.744 1.744 0 0 0-.758-.158zM232.804 134.901c.563 0 1.08.091 1.55.273.476.181.885.448 1.228.799.342.346.609.773.801 1.283.191.504.287 1.081.287 1.731 0 .164-.009.301-.026.413a.604.604 0 0 1-.079.255.32.32 0 0 1-.148.131.696.696 0 0 1-.243.036h-5.521c.064.925.311 1.605.741 2.038.429.433.998.65 1.706.65.348 0 .647-.041.897-.123.255-.082.476-.173.662-.272.191-.1.357-.191.496-.273a.849.849 0 0 1 .418-.123.463.463 0 0 1 .392.202l.627.791a3.671 3.671 0 0 1-.802.712c-.296.187-.606.34-.931.457-.319.111-.647.19-.984.237-.331.047-.653.07-.966.07a4.792 4.792 0 0 1-1.733-.307 3.952 3.952 0 0 1-1.393-.923 4.398 4.398 0 0 1-.932-1.511c-.226-.603-.339-1.3-.339-2.091 0-.615.098-1.192.296-1.731a4.154 4.154 0 0 1 .844-1.415 4.03 4.03 0 0 1 1.35-.957c.534-.235 1.135-.352 1.802-.352zm.044 1.555c-.627 0-1.118.179-1.472.536-.354.358-.58.864-.679 1.52h4.04c0-.281-.038-.544-.113-.79a1.836 1.836 0 0 0-.349-.659 1.602 1.602 0 0 0-.592-.44 1.956 1.956 0 0 0-.835-.167zM244.701 144.057c-.279 0-.462-.132-.549-.396l-.174-.87c-.186.211-.38.402-.583.571a3.61 3.61 0 0 1-.662.44 3.186 3.186 0 0 1-.758.281c-.267.07-.557.105-.87.105-.488 0-.935-.102-1.341-.307a3.053 3.053 0 0 1-1.054-.888c-.29-.392-.516-.875-.679-1.449-.156-.574-.235-1.23-.235-1.968 0-.668.09-1.289.27-1.863.18-.574.438-1.072.775-1.494.337-.422.74-.75 1.21-.984.47-.24.999-.36 1.585-.36.499 0 .926.082 1.28.246.354.158.67.372.949.641V131h2.15v13.057h-1.314zm-2.865-1.591c.447 0 .827-.093 1.141-.281a3.41 3.41 0 0 0 .888-.799v-4.042c-.244-.299-.511-.51-.801-.633a2.302 2.302 0 0 0-.923-.184c-.325 0-.621.061-.888.184a1.772 1.772 0 0 0-.671.562c-.18.246-.319.563-.418.949a5.479 5.479 0 0 0-.148 1.354c0 .527.041.975.122 1.344.087.363.209.662.366.896.157.228.348.395.575.501.226.099.479.149.757.149zM247.893 142.721c0-.164.029-.316.087-.457a1.172 1.172 0 0 1 .662-.632c.156-.065.328-.097.513-.097.221 0 .412.041.575.123a1.1 1.1 0 0 1 .409.325c.111.135.192.293.244.474.052.176.078.364.078.563 0 .281-.043.577-.13.887a4.39 4.39 0 0 1-.366.932 5.422 5.422 0 0 1-1.419 1.713l-.375-.343a.41.41 0 0 1-.156-.325c0-.047.014-.099.043-.158a.831.831 0 0 1 .122-.158c.064-.07.142-.158.235-.264.093-.099.186-.217.279-.351.093-.129.177-.273.252-.431.082-.152.14-.316.175-.492-.18 0-.346-.032-.497-.096a1.275 1.275 0 0 1-.392-.282 1.403 1.403 0 0 1-.252-.413 1.494 1.494 0 0 1-.087-.518zM256.817 142.431h2.551v-7.407c0-.287.009-.589.026-.905l-1.811 1.529a.647.647 0 0 1-.235.132.771.771 0 0 1-.549-.035.669.669 0 0 1-.209-.176l-.679-.94 3.84-3.295h1.768v11.097h2.263v1.626h-6.965v-1.626zM269.119 144.057V131h2.15v5.149a4.158 4.158 0 0 1 1.202-.905c.447-.229.969-.343 1.567-.343.487 0 .932.103 1.332.308.406.199.755.492 1.045.878.296.387.522.864.679 1.432.163.569.244 1.222.244 1.96 0 .673-.09 1.297-.27 1.871a4.546 4.546 0 0 1-.775 1.494 3.554 3.554 0 0 1-1.21.993 3.51 3.51 0 0 1-1.585.351c-.273 0-.522-.029-.749-.088a2.466 2.466 0 0 1-.618-.228c-.186-.1-.36-.22-.522-.36a5.242 5.242 0 0 1-.453-.483l-.096.606c-.035.152-.096.26-.183.325a.534.534 0 0 1-.339.097h-1.419zm4.179-7.469c-.447 0-.83.097-1.149.29a3.283 3.283 0 0 0-.88.8v4.041c.244.305.508.519.792.642.291.117.604.176.941.176.325 0 .618-.062.879-.185s.482-.31.662-.562c.186-.252.328-.569.427-.949.098-.387.148-.841.148-1.362 0-.527-.044-.973-.131-1.336-.081-.369-.2-.667-.357-.896a1.43 1.43 0 0 0-.575-.501 1.74 1.74 0 0 0-.757-.158zM286.024 144.057h-.966c-.204 0-.363-.03-.479-.088-.116-.065-.204-.191-.262-.378l-.191-.642c-.226.205-.45.387-.671.545a4.024 4.024 0 0 1-.67.387 3.459 3.459 0 0 1-.74.237 4.389 4.389 0 0 1-.871.079c-.377 0-.725-.05-1.045-.149a2.352 2.352 0 0 1-.827-.466 2.131 2.131 0 0 1-.531-.764 2.73 2.73 0 0 1-.191-1.063c0-.34.087-.674.261-1.002.18-.334.476-.633.888-.896.412-.27.961-.492 1.646-.668.684-.176 1.535-.275 2.551-.299v-.527c0-.603-.128-1.049-.383-1.336-.25-.292-.616-.439-1.098-.439-.348 0-.638.041-.87.123a3.33 3.33 0 0 0-.61.281c-.168.1-.325.191-.47.273a.957.957 0 0 1-.479.123.611.611 0 0 1-.374-.115.884.884 0 0 1-.253-.281l-.391-.694c1.027-.949 2.266-1.423 3.717-1.423.523 0 .987.088 1.393.263.413.17.761.41 1.045.721a3 3 0 0 1 .645 1.098c.151.428.226.896.226 1.406v5.694zm-4.179-1.354c.22 0 .423-.02.609-.061.186-.041.36-.103.523-.185.168-.082.328-.181.478-.298.157-.123.314-.267.471-.431v-1.52c-.627.029-1.153.085-1.576.167-.418.076-.755.176-1.01.299-.256.123-.439.266-.549.43a.983.983 0 0 0-.157.536c0 .381.111.653.331.817.227.164.52.246.88.246zM291.073 144.197c-.772 0-1.367-.22-1.785-.659-.418-.445-.627-1.057-.627-1.836v-5.035h-.905a.448.448 0 0 1-.305-.114c-.081-.076-.122-.19-.122-.343v-.861l1.437-.237.452-2.46a.452.452 0 0 1 .157-.273.528.528 0 0 1 .322-.096h1.115v2.838h2.35v1.546h-2.35v4.885c0 .282.069.501.209.659a.703.703 0 0 0 .557.238c.133 0 .244-.015.331-.044a1.85 1.85 0 0 0 .235-.106c.069-.035.13-.067.183-.096a.271.271 0 0 1 .156-.053c.064 0 .116.017.157.053a.623.623 0 0 1 .131.14l.644 1.055a3.252 3.252 0 0 1-1.08.597 3.975 3.975 0 0 1-1.262.202zM294.873 144.057V131h2.15v5.017a4.561 4.561 0 0 1 1.15-.808c.418-.205.908-.308 1.471-.308.488 0 .92.085 1.298.255.377.164.69.398.94.703.255.299.447.659.575 1.081.133.415.2.875.2 1.379v5.738h-2.151v-5.738c0-.551-.128-.975-.383-1.274-.25-.305-.627-.457-1.132-.457-.371 0-.72.085-1.045.255-.325.17-.632.401-.923.694v6.52h-2.15zM304.77 144.057v-9.015h1.263c.22 0 .374.041.461.123.087.082.145.222.174.421l.131 1.09c.319-.556.693-.996 1.123-1.318a2.35 2.35 0 0 1 1.445-.483c.441 0 .807.102 1.097.307l-.278 1.626c-.018.105-.055.181-.113.228a.403.403 0 0 1-.236.062 1.46 1.46 0 0 1-.357-.062 2.363 2.363 0 0 0-.6-.061c-.447 0-.83.126-1.15.378-.319.246-.589.609-.809 1.089v5.615h-2.151zM315.692 134.901c.668 0 1.271.109 1.811.325.546.217 1.01.525 1.393.923s.679.884.888 1.458c.209.574.314 1.216.314 1.925 0 .714-.105 1.359-.314 1.933a4.18 4.18 0 0 1-.888 1.467 3.836 3.836 0 0 1-1.393.931c-.54.217-1.143.325-1.811.325a4.886 4.886 0 0 1-1.82-.325 3.932 3.932 0 0 1-1.402-.931 4.271 4.271 0 0 1-.896-1.467c-.209-.574-.314-1.219-.314-1.933 0-.709.105-1.351.314-1.925.214-.574.513-1.06.896-1.458a4.007 4.007 0 0 1 1.402-.923 4.906 4.906 0 0 1 1.82-.325zm0 7.618c.743 0 1.292-.252 1.646-.756.359-.503.539-1.241.539-2.214 0-.972-.18-1.713-.539-2.223-.354-.509-.903-.764-1.646-.764-.755 0-1.312.258-1.672.773-.36.51-.54 1.248-.54 2.214 0 .967.18 1.705.54 2.214.36.504.917.756 1.672.756zM325.589 134.901c.668 0 1.271.109 1.811.325.546.217 1.01.525 1.393.923s.68.884.888 1.458c.209.574.314 1.216.314 1.925 0 .714-.105 1.359-.314 1.933a4.165 4.165 0 0 1-.888 1.467 3.836 3.836 0 0 1-1.393.931c-.54.217-1.143.325-1.811.325a4.88 4.88 0 0 1-1.819-.325 3.923 3.923 0 0 1-1.402-.931 4.289 4.289 0 0 1-.897-1.467c-.209-.574-.314-1.219-.314-1.933 0-.709.105-1.351.314-1.925.215-.574.514-1.06.897-1.458a3.998 3.998 0 0 1 1.402-.923 4.9 4.9 0 0 1 1.819-.325zm0 7.618c.743 0 1.292-.252 1.646-.756.36-.503.54-1.241.54-2.214 0-.972-.18-1.713-.54-2.223-.354-.509-.903-.764-1.646-.764-.754 0-1.312.258-1.671.773-.36.51-.54 1.248-.54 2.214 0 .967.18 1.705.54 2.214.359.504.917.756 1.671.756zM331.673 144.057v-9.015h1.315c.278 0 .461.132.548.395l.139.668c.157-.176.32-.337.488-.483.174-.147.357-.273.549-.378a2.85 2.85 0 0 1 .626-.246c.227-.065.474-.097.741-.097.563 0 1.024.155 1.384.466.366.304.638.712.818 1.221.14-.299.314-.553.523-.764.209-.217.438-.393.688-.527.249-.135.513-.235.792-.299.284-.065.569-.097.853-.097.494 0 .932.076 1.315.229.383.152.705.374.966.667.262.293.459.651.592 1.072a4.6 4.6 0 0 1 .209 1.45v5.738h-2.15v-5.738c0-.574-.125-1.005-.375-1.292-.249-.292-.615-.439-1.097-.439-.22 0-.426.038-.618.114a1.502 1.502 0 0 0-.496.334c-.139.141-.25.319-.331.536a2.128 2.128 0 0 0-.122.747v5.738h-2.159v-5.738c0-.603-.122-1.043-.366-1.318-.238-.275-.592-.413-1.062-.413a1.71 1.71 0 0 0-.871.237 2.917 2.917 0 0 0-.749.633v6.599h-2.15zM360.887 144.057h-1.811a.82.82 0 0 1-.505-.15.913.913 0 0 1-.279-.386l-.94-2.592h-5.215l-.941 2.592a.826.826 0 0 1-.278.369.752.752 0 0 1-.497.167h-1.819l4.945-12.706h2.395l4.945 12.706zm-8.15-4.798h4.014l-1.532-4.226c-.07-.187-.148-.407-.235-.659a21.912 21.912 0 0 1-.244-.835c-.081.299-.162.577-.244.835a8.349 8.349 0 0 1-.226.677l-1.533 4.208zM362.062 147v-11.958h1.315c.139 0 .258.032.357.096a.455.455 0 0 1 .191.299l.174.835c.36-.416.772-.753 1.237-1.011.47-.257 1.018-.386 1.645-.386.488 0 .932.102 1.332.307.407.205.755.504 1.045.897.296.386.523.866.679 1.44.163.569.244 1.222.244 1.96 0 .673-.09 1.297-.27 1.871a4.546 4.546 0 0 1-.775 1.494 3.554 3.554 0 0 1-1.21.993c-.47.234-.998.351-1.585.351-.505 0-.934-.076-1.288-.228a3.23 3.23 0 0 1-.941-.65V147h-2.15zm4.179-10.412c-.447 0-.83.097-1.149.29a3.283 3.283 0 0 0-.88.8v4.041c.244.305.508.519.793.642.29.117.601.176.931.176.325 0 .619-.062.88-.185.267-.123.49-.31.67-.562.186-.252.328-.569.427-.949.099-.387.148-.841.148-1.362 0-.527-.044-.973-.131-1.336-.081-.369-.2-.667-.357-.896a1.428 1.428 0 0 0-.574-.501 1.744 1.744 0 0 0-.758-.158zM378.908 144.057h-.966c-.203 0-.363-.03-.479-.088-.116-.065-.203-.191-.261-.378l-.192-.642c-.226.205-.45.387-.67.545a4.033 4.033 0 0 1-.671.387 3.44 3.44 0 0 1-.74.237 4.386 4.386 0 0 1-.87.079 3.51 3.51 0 0 1-1.045-.149 2.352 2.352 0 0 1-.827-.466 2.107 2.107 0 0 1-.531-.764 2.73 2.73 0 0 1-.192-1.063c0-.34.087-.674.261-1.002.18-.334.476-.633.888-.896.412-.27.961-.492 1.646-.668.685-.176 1.535-.275 2.551-.299v-.527c0-.603-.128-1.049-.383-1.336-.25-.292-.615-.439-1.097-.439-.348 0-.639.041-.871.123a3.32 3.32 0 0 0-.609.281c-.169.1-.325.191-.47.273a.96.96 0 0 1-.479.123.616.616 0 0 1-.375-.115.893.893 0 0 1-.252-.281l-.392-.694c1.027-.949 2.267-1.423 3.718-1.423.522 0 .987.088 1.393.263.412.17.76.41 1.045.721.284.304.499.671.644 1.098.151.428.226.896.226 1.406v5.694zm-4.179-1.354c.221 0 .424-.02.61-.061.185-.041.359-.103.522-.185.168-.082.328-.181.479-.298.157-.123.313-.267.47-.431v-1.52c-.627.029-1.152.085-1.576.167-.418.076-.755.176-1.01.299s-.438.266-.548.43a.975.975 0 0 0-.157.536c0 .381.11.653.331.817.226.164.519.246.879.246zM381.023 144.057v-9.015h1.263c.22 0 .374.041.461.123.087.082.145.222.174.421l.131 1.09c.319-.556.693-.996 1.123-1.318a2.348 2.348 0 0 1 1.445-.483c.441 0 .807.102 1.097.307l-.278 1.626c-.018.105-.055.181-.114.228a.4.4 0 0 1-.235.062 1.46 1.46 0 0 1-.357-.062 2.363 2.363 0 0 0-.6-.061c-.447 0-.83.126-1.15.378-.319.246-.589.609-.809 1.089v5.615h-2.151zM391.066 144.197c-.772 0-1.367-.22-1.785-.659-.418-.445-.627-1.057-.627-1.836v-5.035h-.906a.447.447 0 0 1-.304-.114c-.082-.076-.122-.19-.122-.343v-.861l1.436-.237.453-2.46a.443.443 0 0 1 .157-.273.528.528 0 0 1 .322-.096h1.114v2.838h2.351v1.546h-2.351v4.885c0 .282.07.501.209.659.14.159.325.238.558.238.133 0 .243-.015.33-.044a4.648 4.648 0 0 0 .418-.202.276.276 0 0 1 .157-.053c.064 0 .116.017.157.053.04.029.084.076.13.14l.645 1.055a3.272 3.272 0 0 1-1.08.597 3.975 3.975 0 0 1-1.262.202zM394.866 144.057v-9.015h1.314c.279 0 .462.132.549.395l.139.668c.157-.176.319-.337.488-.483a2.878 2.878 0 0 1 1.175-.624c.227-.065.473-.097.74-.097.563 0 1.025.155 1.385.466.365.304.638.712.818 1.221.139-.299.313-.553.522-.764.209-.217.439-.393.688-.527.25-.135.514-.235.793-.299a3.81 3.81 0 0 1 .853-.097c.493 0 .932.076 1.315.229.383.152.705.374.966.667.261.293.459.651.592 1.072.139.422.209.905.209 1.45v5.738h-2.15v-5.738c0-.574-.125-1.005-.375-1.292-.249-.292-.615-.439-1.097-.439-.22 0-.427.038-.618.114a1.502 1.502 0 0 0-.496.334c-.14.141-.25.319-.331.536a2.105 2.105 0 0 0-.122.747v5.738h-2.159v-5.738c0-.603-.122-1.043-.366-1.318-.238-.275-.592-.413-1.062-.413a1.71 1.71 0 0 0-.871.237 2.9 2.9 0 0 0-.749.633v6.599h-2.15zM413.216 134.901c.563 0 1.08.091 1.55.273.476.181.885.448 1.228.799.342.346.609.773.801 1.283.191.504.287 1.081.287 1.731 0 .164-.009.301-.026.413a.604.604 0 0 1-.079.255.32.32 0 0 1-.148.131.696.696 0 0 1-.243.036h-5.521c.064.925.311 1.605.741 2.038.429.433.998.65 1.706.65.348 0 .647-.041.897-.123.255-.082.476-.173.662-.272.191-.1.357-.191.496-.273a.849.849 0 0 1 .418-.123.463.463 0 0 1 .392.202l.627.791a3.69 3.69 0 0 1-.801.712c-.297.187-.607.34-.932.457-.319.111-.647.19-.984.237-.331.047-.653.07-.966.07a4.792 4.792 0 0 1-1.733-.307 3.952 3.952 0 0 1-1.393-.923 4.398 4.398 0 0 1-.932-1.511c-.226-.603-.339-1.3-.339-2.091 0-.615.098-1.192.296-1.731a4.154 4.154 0 0 1 .844-1.415 4.03 4.03 0 0 1 1.35-.957c.534-.235 1.135-.352 1.802-.352zm.044 1.555c-.627 0-1.118.179-1.472.536-.354.358-.58.864-.679 1.52h4.04c0-.281-.038-.544-.113-.79a1.85 1.85 0 0 0-.348-.659 1.614 1.614 0 0 0-.593-.44 1.956 1.956 0 0 0-.835-.167zM418.826 144.057v-9.015h1.315c.279 0 .462.132.549.395l.148.712c.18-.188.368-.357.566-.51.203-.152.415-.284.635-.395a3.35 3.35 0 0 1 .723-.255 3.71 3.71 0 0 1 .836-.088c.487 0 .92.085 1.297.255.377.164.691.398.94.703.256.299.447.659.575 1.081.134.415.2.875.2 1.379v5.738h-2.15v-5.738c0-.551-.128-.975-.383-1.274-.25-.305-.627-.457-1.132-.457-.372 0-.72.085-1.045.255-.325.17-.633.401-.923.694v6.52h-2.151zM431.658 144.197c-.772 0-1.367-.22-1.785-.659-.418-.445-.627-1.057-.627-1.836v-5.035h-.905a.448.448 0 0 1-.305-.114c-.081-.076-.122-.19-.122-.343v-.861l1.437-.237.452-2.46a.452.452 0 0 1 .157-.273.528.528 0 0 1 .322-.096h1.115v2.838h2.35v1.546h-2.35v4.885c0 .282.069.501.209.659a.703.703 0 0 0 .557.238c.133 0 .244-.015.331-.044a1.85 1.85 0 0 0 .235-.106c.069-.035.13-.067.183-.096a.271.271 0 0 1 .156-.053c.064 0 .116.017.157.053a.623.623 0 0 1 .131.14l.644 1.055a3.252 3.252 0 0 1-1.08.597 3.975 3.975 0 0 1-1.262.202z" fill="#0F2E5A"/><path d="M657.502 567h-1.248a.57.57 0 0 1-.348-.102.627.627 0 0 1-.192-.264l-.648-1.77h-3.594l-.648 1.77a.561.561 0 0 1-.192.252.52.52 0 0 1-.342.114h-1.254l3.408-8.676h1.65l3.408 8.676zm-5.616-3.276h2.766l-1.056-2.886a20.997 20.997 0 0 1-.162-.45 14.854 14.854 0 0 1-.168-.57c-.056.204-.112.394-.168.57a5.61 5.61 0 0 1-.156.462l-1.056 2.874zm6.426 5.286v-8.166h.906c.096 0 .178.022.246.066a.308.308 0 0 1 .132.204l.12.57c.248-.284.532-.514.852-.69.324-.176.702-.264 1.134-.264a2 2 0 0 1 .918.21c.28.14.52.344.72.612.204.264.36.592.468.984.112.388.168.834.168 1.338 0 .46-.062.886-.186 1.278a3.095 3.095 0 0 1-.534 1.02 2.447 2.447 0 0 1-.834.678c-.324.16-.688.24-1.092.24-.348 0-.644-.052-.888-.156a2.226 2.226 0 0 1-.648-.444v2.52h-1.482zm2.88-7.11c-.308 0-.572.066-.792.198-.216.128-.418.31-.606.546v2.76c.168.208.35.354.546.438.2.08.414.12.642.12.224 0 .426-.042.606-.126.184-.084.338-.212.462-.384.128-.172.226-.388.294-.648.068-.264.102-.574.102-.93 0-.36-.03-.664-.09-.912a1.73 1.73 0 0 0-.246-.612.978.978 0 0 0-.396-.342 1.206 1.206 0 0 0-.522-.108zm3.905 7.11v-8.166h.906c.096 0 .178.022.246.066a.308.308 0 0 1 .132.204l.12.57c.248-.284.532-.514.852-.69.324-.176.702-.264 1.134-.264a2 2 0 0 1 .918.21c.28.14.52.344.72.612.204.264.36.592.468.984.112.388.168.834.168 1.338 0 .46-.062.886-.186 1.278a3.095 3.095 0 0 1-.534 1.02 2.447 2.447 0 0 1-.834.678c-.324.16-.688.24-1.092.24-.348 0-.644-.052-.888-.156a2.226 2.226 0 0 1-.648-.444v2.52h-1.482zm2.88-7.11c-.308 0-.572.066-.792.198-.216.128-.418.31-.606.546v2.76c.168.208.35.354.546.438.2.08.414.12.642.12.224 0 .426-.042.606-.126.184-.084.338-.212.462-.384.128-.172.226-.388.294-.648.068-.264.102-.574.102-.93 0-.36-.03-.664-.09-.912a1.73 1.73 0 0 0-.246-.612.978.978 0 0 0-.396-.342 1.206 1.206 0 0 0-.522-.108zm5.483-3.816V567h-1.482v-8.916h1.482zm3.864 10.608a.538.538 0 0 1-.174.234c-.068.056-.174.084-.318.084h-1.104l1.152-2.466-2.49-5.7h1.296c.12 0 .212.028.276.084.064.056.112.12.144.192l1.314 3.192c.044.104.082.212.114.324.032.112.06.224.084.336.032-.116.066-.228.102-.336.04-.108.082-.218.126-.33l1.236-3.186a.437.437 0 0 1 .408-.276h1.188l-3.354 7.848z" fill="#fff"/><path d="M614 255.5c0 9.113-7.387 16.5-16.5 16.5s-16.5-7.387-16.5-16.5 7.387-16.5 16.5-16.5 16.5 7.387 16.5 16.5z" fill="#F5F5F5"/><path d="M603.375 254.433c.833.474.833 1.66 0 2.134l-7.5 4.266c-.833.474-1.875-.118-1.875-1.066v-8.534c0-.948 1.042-1.54 1.875-1.066l7.5 4.266z" fill="#E63167"/><path d="M473.5 402c4.142 0 7.5-.672 7.5-1.5s-3.358-1.5-7.5-1.5c-4.142 0-7.5.672-7.5 1.5s3.358 1.5 7.5 1.5z" fill="#F2F2F2"/><path d="M475 274h-4v128h4V274z" fill="#E2E2E2"/><path d="M490.387 284h-33.774a2.59 2.59 0 0 1-1.959-.891 2.664 2.664 0 0 1-.634-2.072l4.304-34.728a2.644 2.644 0 0 1 .864-1.648 2.605 2.605 0 0 1 1.728-.661h25.168a2.605 2.605 0 0 1 1.728.661c.477.425.785 1.011.864 1.648l4.304 34.728a2.664 2.664 0 0 1-.634 2.072 2.59 2.59 0 0 1-1.959.891z" fill="#E2E2E2"/><path d="M254.469 367.872c-1.537 5.414-6.028 9.204-10.712 12.423-.654.45-1.309.889-1.963 1.318l-.013.008-.093.062-.404.264.074.034s.072.039-.007.006l-.072-.029c-2.721-1.114-5.491-2.31-7.576-4.396-2.163-2.167-3.428-5.565-2.256-8.411a5.848 5.848 0 0 1 .884-1.456 5.738 5.738 0 0 1 2.446-1.77 5.66 5.66 0 0 1 2.994-.274 5.72 5.72 0 0 1 2.719 1.299 5.836 5.836 0 0 1 1.699 2.515c.344-3.251-2.298-5.975-4.84-7.984-2.544-2.009-5.435-4.196-5.926-7.43-.275-1.799.342-3.542 1.465-4.942a8.341 8.341 0 0 1 5.489-3.057c3.901-.412 7.689 1.683 10.523 4.435 4.561 4.428 7.318 11.229 5.569 17.385z" fill="#DCDCDC"/><path d="M247.767 360.813a14.238 14.238 0 0 1 1.78 3.815c.338 1.206.488 2.454.446 3.703a15.72 15.72 0 0 1-2.165 7.31 23.146 23.146 0 0 1-3.589 4.66c-.682.45-1.365.888-2.048 1.317l-.014.008c-.033.021-.066.041-.096.062l-.422.264s.152.072.07.04l-.075-.029a12.45 12.45 0 0 0-.727-5.999 12.768 12.768 0 0 0-3.481-5.005 13.388 13.388 0 0 0-5.446-2.848c.099-.137.206-.269.317-.399.781.213 1.54.492 2.27.835a13.313 13.313 0 0 1 6.093 5.708 13.069 13.069 0 0 1 1.5 7.346c.116-.103.233-.208.346-.312 2.158-1.954 4.074-4.198 5.371-6.787a14.607 14.607 0 0 0 1.611-7.071c-.106-2.671-1.201-5.144-2.787-7.298a31.706 31.706 0 0 0-6.102-6.111 36.796 36.796 0 0 0-7.588-4.552.26.26 0 0 1-.134-.139.247.247 0 0 1 .001-.189.222.222 0 0 1 .11-.127.201.201 0 0 1 .169.007 37.139 37.139 0 0 1 8.64 5.359c2.25 1.864 4.368 3.993 5.95 6.432z" fill="#fff"/><path d="M232.34 381h17.32a1.356 1.356 0 0 1 1.005.446 1.322 1.322 0 0 1 .325 1.035l-2.207 17.365a1.316 1.316 0 0 1-.444.824c-.244.212-.559.33-.886.33h-12.906c-.327 0-.642-.118-.886-.33a1.316 1.316 0 0 1-.444-.824l-2.207-17.365a1.307 1.307 0 0 1 .325-1.035 1.356 1.356 0 0 1 1.005-.446z" fill="#DCDCDC"/><path d="M288 402c1.105 0 2-1.119 2-2.5s-.895-2.5-2-2.5-2 1.119-2 2.5.895 2.5 2 2.5zM423 402c1.105 0 2-1.119 2-2.5s-.895-2.5-2-2.5-2 1.119-2 2.5.895 2.5 2 2.5z" fill="#CCC"/><path d="M327.154 369h-33.308a5.887 5.887 0 0 1-4.132-1.696 5.759 5.759 0 0 1-1.714-4.088v-22.432a5.759 5.759 0 0 1 1.714-4.088 5.887 5.887 0 0 1 4.132-1.696h33.308a5.887 5.887 0 0 1 4.132 1.696 5.759 5.759 0 0 1 1.714 4.088v22.433a5.758 5.758 0 0 1-1.714 4.087 5.887 5.887 0 0 1-4.132 1.696zM373.024 369h-34.048a5.998 5.998 0 0 1-4.224-1.746 5.95 5.95 0 0 1-1.752-4.208v-23.092a5.95 5.95 0 0 1 1.752-4.208 5.998 5.998 0 0 1 4.224-1.746h34.048a5.998 5.998 0 0 1 4.224 1.746 5.95 5.95 0 0 1 1.752 4.208v23.092a5.95 5.95 0 0 1-1.752 4.208 5.998 5.998 0 0 1-4.224 1.746z" fill="#E6E6E6"/><path d="M418.154 369h-33.308a5.802 5.802 0 0 1-4.132-1.746 6.016 6.016 0 0 1-1.714-4.208v-23.092a6.016 6.016 0 0 1 1.714-4.208 5.802 5.802 0 0 1 4.132-1.746h33.308c1.55.002 3.036.63 4.132 1.746a6.016 6.016 0 0 1 1.714 4.208v23.092a6.016 6.016 0 0 1-1.714 4.208 5.802 5.802 0 0 1-4.132 1.746z" fill="#E6E6E6"/><path d="M430 368H283v31h147v-31z" fill="#E6E6E6"/><path d="M288 399h-6.261c-3.164 0-5.739-3.007-5.739-6.703V360h12v39zM429.261 399H423v-44h12v36.437c0 4.17-2.575 7.563-5.739 7.563z" fill="#E6E6E6"/><path d="M333 375h-45v-10.152c15-9.131 30-9.131 45 0V375zM378 375h-45v-9.555c15-8.593 30-8.593 45 0V375zM423 375h-45v-9.555c15-8.593 30-8.593 45 0V375z" fill="#CCC"/><path d="M279.5 369c5.799 0 10.5-4.925 10.5-11s-4.701-11-10.5-11-10.5 4.925-10.5 11 4.701 11 10.5 11zM432.5 368c5.799 0 10.5-4.701 10.5-10.5s-4.701-10.5-10.5-10.5-10.5 4.701-10.5 10.5 4.701 10.5 10.5 10.5z" fill="#CCC"/><path d="M364.202 299h-31.404a2.785 2.785 0 0 1-1.977-.829 2.85 2.85 0 0 1-.821-2v-27.342a2.85 2.85 0 0 1 .821-2 2.785 2.785 0 0 1 1.977-.829h31.404a2.785 2.785 0 0 1 1.977.829c.525.531.82 1.25.821 2v27.342a2.85 2.85 0 0 1-.821 2 2.785 2.785 0 0 1-1.977.829zm-31.404-32.371c-.577 0-1.13.232-1.538.645a2.21 2.21 0 0 0-.638 1.555v27.342c0 .584.23 1.143.638 1.555.408.413.961.645 1.538.645h31.404c.577 0 1.13-.232 1.538-.645a2.21 2.21 0 0 0 .638-1.555v-27.342a2.21 2.21 0 0 0-.638-1.555 2.161 2.161 0 0 0-1.538-.645h-31.404z" fill="#F2F2F2"/><path d="M359.406 295h-21.812a2.534 2.534 0 0 1-1.833-.799 2.796 2.796 0 0 1-.761-1.925v-19.552a2.796 2.796 0 0 1 .761-1.925 2.534 2.534 0 0 1 1.833-.799h21.812a2.534 2.534 0 0 1 1.833.799c.487.511.76 1.203.761 1.925v19.552a2.796 2.796 0 0 1-.761 1.925 2.534 2.534 0 0 1-1.833.799z" fill="#E6E6E6"/><path d="M348.5 262a1.5 1.5 0 1 0-.001-3.001A1.5 1.5 0 0 0 348.5 262z" fill="#F2F2F2"/><path d="m352.437 267-3.446-5.728-3.427 5.727-.564-.333 3.989-6.666 4.011 6.665-.563.335z" fill="#F2F2F2"/><path d="M352 280.416a6.806 6.806 0 0 0-.152-1.416h-4.617c-.327 0-.64.133-.871.369-.23.236-.36.556-.36.89V287a6.4 6.4 0 0 0 4.267-2.085 6.687 6.687 0 0 0 1.733-4.499z" fill="#2272E2"/><path d="M346.042 287a7.477 7.477 0 0 1-3.752-.999 6.703 6.703 0 0 1-2.599-2.692 6.064 6.064 0 0 1-.644-3.556 6.242 6.242 0 0 1 1.507-3.326 7.057 7.057 0 0 1 3.195-2.073 7.6 7.6 0 0 1 3.9-.182 7.207 7.207 0 0 1 3.404 1.766 6.365 6.365 0 0 1 1.862 3.169l.085.359h-5.198c-.255 0-.499.094-.679.26a.851.851 0 0 0-.281.626v6.605l-.353.024c-.148.009-.296.019-.447.019zm0-12.409c-1.697 0-3.325.622-4.525 1.731-1.2 1.108-1.875 2.611-1.875 4.178 0 1.567.675 3.07 1.875 4.178 1.2 1.109 2.828 1.731 4.525 1.731.053 0 .107-.001.16-.004v-6.053c0-.391.169-.767.469-1.044.3-.277.706-.433 1.131-.433h4.39c-.388-1.231-1.196-2.313-2.304-3.086a6.795 6.795 0 0 0-3.846-1.198z" fill="#fff"/><path d="M354.529 289h-7.058a1.475 1.475 0 0 1-1.471-1.471v-1.031l.273-.02a5.862 5.862 0 0 0 5.331-4.618 5.853 5.853 0 0 0-.008-2.503l-.078-.357h3.011a1.475 1.475 0 0 1 1.471 1.471v7.058a1.475 1.475 0 0 1-1.471 1.471zm-7.941-1.96v.489a.884.884 0 0 0 .883.883h7.058a.884.884 0 0 0 .883-.883v-7.058a.884.884 0 0 0-.883-.883h-2.29c.056.341.084.685.085 1.03a6.49 6.49 0 0 1-5.736 6.422z" fill="#fff"/><path d="M791 396H677v8h114v-8z" fill="#D1D1D1"/><path d="M763 352.524V376h-60v-23.476c0-7.79 2.927-15.286 8.183-20.952 5.255-5.665 12.441-9.072 20.085-9.522a29.23 29.23 0 0 1 2.722-.032c7.612.245 14.845 3.436 20.223 8.923.162.165.321.331.481.5 5.333 5.678 8.308 13.23 8.306 21.083z" fill="#A3A3A3"/><path d="M734 322.018V376h-2v-53.95a15.803 15.803 0 0 1 2-.032z" fill="#fff"/><path d="M758 334h-50a32.875 32.875 0 0 1 2.403-3h45.194a32.875 32.875 0 0 1 2.403 3zM759 342h-21v36h21v-36z" fill="#fff"/><path d="M745 348h-4v3h4v-3zM751 348h-4v3h4v-3zM755 348h-3v3h3v-3zM745 356h-4v3h4v-3zM751 356h-4v3h4v-3zM755 356h-3v3h3v-3zM745 363h-4v4h4v-4zM751 363h-4v4h4v-4zM755 363h-3v4h3v-4zM745 371h-4v4h4v-4zM751 371h-4v4h4v-4zM755 371h-3v4h3v-4z" fill="#D1D1D1"/><path d="M745 371h-4v4h4v-4zM751 371h-4v4h4v-4zM755 371h-3v4h3v-4z" fill="#D1D1D1"/><path d="M709.5 369c2.485 0 4.5-2.239 4.5-5s-2.015-5-4.5-5-4.5 2.239-4.5 5 2.015 5 4.5 5zM710.418 371.272l-.105-.199-.751.396.105.198.751-.395zM722 364c3.866 0 7-2.91 7-6.5s-3.134-6.5-7-6.5-7 2.91-7 6.5 3.134 6.5 7 6.5z" fill="#fff"/><path d="M723 358h.053l.947 19h-2l1-19z" fill="#fff"/><path d="m724.212 368.218-.159-.302-1.142.601.159.303 1.142-.602zM708.797 350.545l1.203-.537c-.934-.058-1.318.226-1.475.452-.73-.17-1.525.052-1.525.052l2.406.488c-.121-.181-.332-.339-.609-.455zM720.797 343.089l1.203-1.074c-.934-.115-1.318.454-1.475.904-.73-.338-1.525.105-1.525.105l2.406.976a2.025 2.025 0 0 0-.609-.911zM716.396 350.089l1.604-1.074c-1.246-.115-1.758.454-1.967.904-.973-.338-2.033.105-2.033.105l3.209.976a2.112 2.112 0 0 0-.813-.911z" fill="#fff"/><path d="M767 374h-68v4h68v-4z" fill="#D3D3D3"/><path d="M688 389s-12.439-6.594-8.069-11.167C684.301 373.26 688 389 688 389zM688.713 389s-5.165-19.92 2.441-18.967c7.606.953-2.441 18.967-2.441 18.967z" fill="#D1D1D1"/><path d="m684 388 .263 3.367.004.059c0 .525.027 1.051.082 1.574.357 3.435 1.891 5 3.684 5 1.794 0 3.261-1.565 3.618-5 .055-.523.082-1.049.082-1.574l.002-.047.001-.012L692 388h-8z" fill="#D1D1D1"/><path d="m692 391-.001.007-.002.029c0 .322-.029.644-.088.964h-7.817a5.31 5.31 0 0 1-.088-.964L684 391h8z" fill="#fff"/><path d="M748.076 369.621c.109.115.234.153.355.107.12-.045.23-.171.311-.358.081-.187.129-.423.136-.671a2.026 2.026 0 0 0-.097-.699c.064.097.116.22.154.362a2.142 2.142 0 0 1 .027.93 1.47 1.47 0 0 1-.13.397.688.688 0 0 1-.201.25.304.304 0 0 1-.234.056.404.404 0 0 1-.224-.149.999.999 0 0 1-.173-.324c.024.037.049.07.076.099z" fill="#2F2E41"/><defs><linearGradient id="a" x1="-244.5" y1="-161.5" x2="384" y2="292" gradientUnits="userSpaceOnUse"><stop stop-color="#ABCEFF"/><stop offset="1" stop-color="#fff" stop-opacity="0"/></linearGradient><linearGradient id="b" x1="89.5" y1="180.5" x2="718" y2="634" gradientUnits="userSpaceOnUse"><stop stop-color="#ABCEFF"/><stop offset="1" stop-color="#fff" stop-opacity="0"/></linearGradient><linearGradient id="c" x1="521.733" y1="133.57" x2="974.837" y2="460.512" gradientUnits="userSpaceOnUse"><stop stop-color="#ABCEFF"/><stop offset="1" stop-color="#fff" stop-opacity="0"/></linearGradient><linearGradient id="d" x1="-14.753" y1="397.137" x2="113.14" y2="489.419" gradientUnits="userSpaceOnUse"><stop stop-color="#ABCEFF"/><stop offset="1" stop-color="#fff" stop-opacity="0"/></linearGradient><filter id="e" x="141" y="40" width="733" height="75" filterUnits="userSpaceOnUse" color-interpolation-filters="sRGB"><feFlood flood-opacity="0" result="BackgroundImageFix"/><feColorMatrix in="SourceAlpha" values="0 0 0 0 0 0 0 0 0 0 0 0 0 0 0 0 0 0 127 0"/><feOffset dy="4"/><feGaussianBlur stdDeviation="8"/><feColorMatrix values="0 0 0 0 0 0 0 0 0 0 0 0 0 0 0 0 0 0 0.05 0"/><feBlend in2="BackgroundImageFix" result="effect1_dropShadow"/><feBlend in="SourceGraphic" in2="effect1_dropShadow" result="shape"/></filter></defs></svg>