<svg xmlns="http://www.w3.org/2000/svg" xmlns:xlink="http://www.w3.org/1999/xlink" width="1090" height="903.12" viewBox="0 0 1090 903.12">
  <defs>
    <linearGradient id="linear-gradient" x1="-0.456" y1="0.085" x2="1.053" y2="-0.114" gradientUnits="objectBoundingBox">
      <stop offset="0" stop-color="#2272e2"/>
      <stop offset="1" stop-color="#fff"/>
    </linearGradient>
    <filter id="Rectangle_175" x="250" y="406" width="385" height="136" filterUnits="userSpaceOnUse">
      <feOffset input="SourceAlpha"/>
      <feGaussianBlur stdDeviation="3" result="blur"/>
      <feFlood flood-opacity="0.071"/>
      <feComposite operator="in" in2="blur"/>
      <feComposite in="SourceGraphic"/>
    </filter>
    <filter id="Rectangle_175-2" x="273" y="261" width="403" height="141" filterUnits="userSpaceOnUse">
      <feOffset input="SourceAlpha"/>
      <feGaussianBlur stdDeviation="3" result="blur-2"/>
      <feFlood flood-opacity="0.071"/>
      <feComposite operator="in" in2="blur-2"/>
      <feComposite in="SourceGraphic"/>
    </filter>
    <filter id="Path_18" x="303.082" y="552.471" width="371.01" height="107.172" filterUnits="userSpaceOnUse">
      <feOffset input="SourceAlpha"/>
      <feGaussianBlur stdDeviation="3" result="blur-3"/>
      <feFlood flood-opacity="0.071"/>
      <feComposite operator="in" in2="blur-3"/>
      <feComposite in="SourceGraphic"/>
    </filter>
    <filter id="Rectangle_235" x="391.5" y="92.5" width="446" height="719" filterUnits="userSpaceOnUse">
      <feOffset dy="3" input="SourceAlpha"/>
      <feGaussianBlur stdDeviation="18.5" result="blur-4"/>
      <feFlood flood-opacity="0.161"/>
      <feComposite operator="in" in2="blur-4"/>
      <feComposite in="SourceGraphic"/>
    </filter>
    <filter id="Rectangle_483" x="458" y="305" width="380" height="67" filterUnits="userSpaceOnUse">
      <feOffset dy="3" input="SourceAlpha"/>
      <feGaussianBlur stdDeviation="3" result="blur-5"/>
      <feFlood flood-opacity="0.161"/>
      <feComposite operator="in" in2="blur-5"/>
      <feComposite in="SourceGraphic"/>
    </filter>
    <filter id="Rectangle_484" x="458" y="305" width="144" height="67" filterUnits="userSpaceOnUse">
      <feOffset dy="3" input="SourceAlpha"/>
      <feGaussianBlur stdDeviation="3" result="blur-6"/>
      <feFlood flood-opacity="0.161"/>
      <feComposite operator="in" in2="blur-6"/>
      <feComposite in="SourceGraphic"/>
    </filter>
    <filter id="Rectangle_485" x="582" y="305" width="92" height="67" filterUnits="userSpaceOnUse">
      <feOffset dy="3" input="SourceAlpha"/>
      <feGaussianBlur stdDeviation="3" result="blur-7"/>
      <feFlood flood-opacity="0.161"/>
      <feComposite operator="in" in2="blur-7"/>
      <feComposite in="SourceGraphic"/>
    </filter>
    <filter id="Rectangle_486" x="655" y="305" width="69" height="67" filterUnits="userSpaceOnUse">
      <feOffset dy="3" input="SourceAlpha"/>
      <feGaussianBlur stdDeviation="3" result="blur-8"/>
      <feFlood flood-opacity="0.161"/>
      <feComposite operator="in" in2="blur-8"/>
      <feComposite in="SourceGraphic"/>
    </filter>
    <filter id="Rectangle_487" x="705" y="305" width="70" height="67" filterUnits="userSpaceOnUse">
      <feOffset dy="3" input="SourceAlpha"/>
      <feGaussianBlur stdDeviation="3" result="blur-9"/>
      <feFlood flood-opacity="0.161"/>
      <feComposite operator="in" in2="blur-9"/>
      <feComposite in="SourceGraphic"/>
    </filter>
    <clipPath id="clip-Image_13">
      <rect width="1090" height="903.12"/>
    </clipPath>
  </defs>
  <g id="Image_13" data-name="Image 13" clip-path="url(#clip-Image_13)">
    <rect width="1090" height="903.12" fill="rgba(255,255,255,0)"/>
    <g id="Group_116" data-name="Group 116" transform="translate(-604.42 -1739.489)">
      <g id="Group_43" data-name="Group 43" transform="translate(477.488 1739.919)">
        <g id="Group_32" data-name="Group 32" transform="matrix(0.951, 0.309, -0.309, 0.951, 227.637, 0)" opacity="0.07">
          <circle id="Ellipse_2" data-name="Ellipse 2" cx="189.18" cy="189.18" r="189.18" transform="translate(0 0)" fill="url(#linear-gradient)"/>
          <circle id="Ellipse_3" data-name="Ellipse 3" cx="166.875" cy="166.875" r="166.875" transform="translate(289.449 402.897)" fill="url(#linear-gradient)"/>
          <circle id="Ellipse_4" data-name="Ellipse 4" cx="58.654" cy="58.654" r="58.654" transform="translate(85.916 442.797)" fill="url(#linear-gradient)"/>
          <circle id="Ellipse_21" data-name="Ellipse 21" cx="77.655" cy="77.655" r="77.655" transform="translate(855.076 12.64)" fill="url(#linear-gradient)"/>
        </g>
        <g id="Rectangle_232" data-name="Rectangle 232" transform="translate(523.932 69.57)" fill="#eff0f2" stroke="#eff0f2" stroke-width="1">
          <rect width="367" height="754" rx="22" stroke="none"/>
          <rect x="0.5" y="0.5" width="366" height="753" rx="21.5" fill="none"/>
        </g>
        <g id="Subtraction_1" data-name="Subtraction 1" transform="translate(538.932 86.57)" fill="#fff">
          <path d="M 318.9996337890625 716.5003051757812 L 16.00018119812012 716.5003051757812 C 11.85981750488281 716.5003051757812 7.967272281646729 714.8880615234375 5.039726734161377 711.9605712890625 C 2.112272024154663 709.0330200195312 0.4999993443489075 705.1405029296875 0.4999993443489075 701.0001220703125 L 0.4999993443489075 15.99930381774902 C 0.4999993443489075 11.85939502716064 2.112272024154663 7.967213153839111 5.039726734161377 5.03966760635376 C 7.967181205749512 2.112212896347046 11.85963535308838 0.5000311732292175 16.00018119812012 0.5000311732292175 L 63.85990905761719 0.5000311732292175 L 63.85990905761719 23.04093933105469 C 63.85990905761719 28.83057594299316 68.57018280029297 33.5407600402832 74.35981750488281 33.5407600402832 L 260.6399841308594 33.5407600402832 C 266.4296264648438 33.5407600402832 271.1399230957031 28.83057594299316 271.1399230957031 23.04093933105469 L 271.1399230957031 0.4999412000179291 L 318.9996337890625 0.5000311732292175 C 323.1398315429688 0.5000311732292175 327.0321960449219 2.112212896347046 329.959716796875 5.03966760635376 C 332.887451171875 7.967122077941895 334.4998168945312 11.85930347442627 334.4998168945312 15.99930381774902 L 334.4998168945312 701.0001220703125 C 334.4998168945312 705.1405639648438 332.887451171875 709.0331420898438 329.959716796875 711.9605712890625 C 327.0321044921875 714.8880615234375 323.1397399902344 716.5003051757812 318.9996337890625 716.5003051757812 Z" stroke="none"/>
          <path d="M 318.9996337890625 716.0003051757812 C 323.006103515625 716.0003051757812 326.7729187011719 714.4400024414062 329.6061706542969 711.60693359375 C 332.439453125 708.77392578125 333.9998168945312 705.0070190429688 333.9998168945312 701.0001220703125 L 333.9998168945312 15.99930381774902 C 333.9998168945312 11.99293994903564 332.439453125 8.226304054260254 329.6061706542969 5.393212795257568 C 326.7731018066406 2.560213088989258 323.0062866210938 1.000031113624573 318.9996337890625 1.000031113624573 L 271.6399230957031 0.9999421238899231 L 271.6399230957031 23.04093933105469 C 271.6399230957031 29.10630416870117 266.7053527832031 34.0407600402832 260.6399841308594 34.0407600402832 L 74.35981750488281 34.0407600402832 C 68.29445648193359 34.0407600402832 63.35990905761719 29.10630416870117 63.35990905761719 23.04093933105469 L 63.35990905761719 1.000031113624573 L 16.00018119812012 1.000031113624573 C 11.9931812286377 1.000031113624573 8.226271629333496 2.560213088989258 5.393271923065186 5.393212795257568 C 2.560271978378296 8.226304054260254 0.9999993443489075 11.99293994903564 0.9999993443489075 15.99930381774902 L 0.9999993443489075 701.0001220703125 C 0.9999993443489075 705.0069580078125 2.560271978378296 708.7738647460938 5.393271923065186 711.6070556640625 C 8.22645378112793 714.4400024414062 11.99336338043213 716.0003051757812 16.00018119812012 716.0003051757812 L 318.9996337890625 716.0003051757812 M 318.9996337890625 717.0003051757812 L 16.00018119812012 717.0003051757812 C 11.72618103027344 717.0003051757812 7.708181381225586 715.3360595703125 4.68618106842041 712.3141479492188 C 1.66427206993103 709.2921142578125 -6.436434887291398e-07 705.2741088867188 -6.436434887291398e-07 701.0001220703125 L -6.436434887291398e-07 15.99930381774902 C -6.436434887291398e-07 11.72575855255127 1.66427206993103 7.708031177520752 4.68618106842041 4.686121940612793 C 7.708090305328369 1.664212942123413 11.72609043121338 3.116122024948709e-05 16.00018119812012 3.116122024948709e-05 L 64.35990905761719 3.116122024948709e-05 L 64.35990905761719 23.04093933105469 C 64.35990905761719 28.55484962463379 68.84581756591797 33.0407600402832 74.35981750488281 33.0407600402832 L 260.6399841308594 33.0407600402832 C 266.1539916992188 33.0407600402832 270.6399230957031 28.55484962463379 270.6399230957031 23.04093933105469 L 270.6399230957031 -5.974786836304702e-05 L 318.9996337890625 3.116122024948709e-05 C 323.2733764648438 3.116122024948709e-05 327.291259765625 1.664212942123413 330.3132629394531 4.686121940612793 C 333.33544921875 7.708031177520752 334.9998168945312 11.72584915161133 334.9998168945312 15.99930381774902 L 334.9998168945312 701.0001220703125 C 334.9998168945312 705.2741088867188 333.33544921875 709.292236328125 330.3132629394531 712.3141479492188 C 327.2911682128906 715.3360595703125 323.2732849121094 717.0003051757812 318.9996337890625 717.0003051757812 Z" stroke="none" fill="#cfd3d7"/>
        </g>
        <path id="Rectangle_236" data-name="Rectangle 236" d="M0,0H332a0,0,0,0,1,0,0V55a15,15,0,0,1-15,15H15A15,15,0,0,1,0,55V0A0,0,0,0,1,0,0Z" transform="translate(540.932 730.57)" fill="#2272e2"/>
        <rect id="Rectangle_255" data-name="Rectangle 255" width="47.915" height="4.957" rx="2.478" transform="translate(674.129 704.81) rotate(-90)" fill="#afb5bd"/>
        <g id="Group_30" data-name="Group 30" transform="translate(385.823 144.389)">
          <g id="Group_19" data-name="Group 19" transform="translate(0 270.654)">
            <g transform="matrix(1, 0, 0, 1, -258.89, -415.47)" filter="url(#Rectangle_175)">
              <rect id="Rectangle_175-3" data-name="Rectangle 175" width="367" height="118" rx="8" transform="translate(259 415)" fill="#fff"/>
            </g>
            <g id="account_circle-24px" transform="translate(26.149 26.379)">
              <path id="Path_5" data-name="Path 5" d="M0,0H62.862V62.862H0Z" fill="none"/>
              <path id="Path_6" data-name="Path 6" d="M33.276,7.083A26.193,26.193,0,1,0,59.468,33.276,26.2,26.2,0,0,0,33.276,7.083Zm0,7.858A7.858,7.858,0,1,1,25.418,22.8,7.847,7.847,0,0,1,33.276,14.941Zm0,37.193A18.86,18.86,0,0,1,17.56,43.7c.079-5.212,10.477-8.067,15.716-8.067,5.212,0,15.637,2.855,15.716,8.067A18.86,18.86,0,0,1,33.276,52.135Z" transform="translate(-1.845 -1.845)" fill="#2170de"/>
            </g>
          </g>
          <g id="Group_115" data-name="Group 115" transform="translate(23.259 124.754)">
            <g transform="matrix(1, 0, 0, 1, -282.15, -269.57)" filter="url(#Rectangle_175-2)">
              <rect id="Rectangle_175-4" data-name="Rectangle 175" width="385" height="123" rx="8" transform="translate(282 270)" fill="#fff"/>
            </g>
            <g id="account_circle-24px-2" data-name="account_circle-24px" transform="translate(27.403 29.019)">
              <path id="Path_5-2" data-name="Path 5" d="M0,0H65.961V65.961H0Z" fill="none"/>
              <path id="Path_6-2" data-name="Path 6" d="M34.567,7.083A27.484,27.484,0,1,0,62.051,34.567,27.494,27.494,0,0,0,34.567,7.083Zm0,8.245a8.245,8.245,0,1,1-8.245,8.245A8.234,8.234,0,0,1,34.567,15.328Zm0,39.027a19.79,19.79,0,0,1-16.49-8.85c.082-5.469,10.994-8.465,16.49-8.465,5.469,0,16.408,3,16.49,8.465A19.79,19.79,0,0,1,34.567,54.355Z" transform="translate(-1.587 -1.587)" fill="#2170de"/>
            </g>
          </g>
          <g id="Group_20" data-name="Group 20" transform="translate(53.191 416.653)">
            <g transform="matrix(1, 0, 0, 1, -312.08, -561.47)" filter="url(#Path_18)">
              <path id="Path_18-2" data-name="Path 18" d="M17.433,0H335.578c9.628,0,17.433,6.142,17.433,13.719V75.453c0,7.577-7.8,13.719-17.433,13.719H17.433C7.8,89.172,0,83.03,0,75.453V13.719C0,6.142,7.8,0,17.433,0Z" transform="translate(312.08 561.47)" fill="#fff"/>
            </g>
            <g id="account_circle-24px-3" data-name="account_circle-24px" transform="translate(19.822 21.94)">
              <path id="Path_5-3" data-name="Path 5" d="M0,0H47.977V47.977H0Z" fill="none"/>
              <path id="Path_6-3" data-name="Path 6" d="M27.074,7.083a19.99,19.99,0,1,0,19.99,19.99A20,20,0,0,0,27.074,7.083Zm0,6a6,6,0,1,1-6,6A5.989,5.989,0,0,1,27.074,13.08Zm0,28.386A14.394,14.394,0,0,1,15.079,35.03c.06-3.978,8-6.157,11.994-6.157,3.978,0,11.934,2.179,11.994,6.157A14.394,14.394,0,0,1,27.074,41.467Z" transform="translate(-3.085 -3.085)" fill="#216fdd"/>
            </g>
          </g>
          <path id="Path_164" data-name="Path 164" d="M12.167-16.756v2.99H5.29v3.91h5.267V-6.98H5.29v3.99h6.877V0H1.38V-16.756ZM14.375,0V-11.925h2.116a1.8,1.8,0,0,1,.443.046.777.777,0,0,1,.3.144.613.613,0,0,1,.184.259,2.333,2.333,0,0,1,.109.391l.2,1.115a5.844,5.844,0,0,1,1.472-1.6,2.991,2.991,0,0,1,1.782-.587,2.054,2.054,0,0,1,1.311.391l-.46,2.622a.512.512,0,0,1-.184.339.624.624,0,0,1-.368.1,2.441,2.441,0,0,1-.46-.052,3.566,3.566,0,0,0-.667-.052,2.449,2.449,0,0,0-2.208,1.5V0Zm9.5,0V-11.925h2.208a.984.984,0,0,1,.558.149.8.8,0,0,1,.316.449l.207.69a8.662,8.662,0,0,1,.713-.6,4.176,4.176,0,0,1,.788-.466,4.676,4.676,0,0,1,.909-.3,4.875,4.875,0,0,1,1.064-.109,4.175,4.175,0,0,1,1.731.339,3.592,3.592,0,0,1,1.271.943,4.07,4.07,0,0,1,.782,1.438,5.961,5.961,0,0,1,.264,1.811V0H31.119V-7.578a2.085,2.085,0,0,0-.4-1.363,1.446,1.446,0,0,0-1.184-.489,2.481,2.481,0,0,0-1.1.253,4.293,4.293,0,0,0-.989.679V0ZM42.32-12.109a6.14,6.14,0,0,1,2.168.368,4.712,4.712,0,0,1,1.69,1.069,4.881,4.881,0,0,1,1.1,1.719,6.309,6.309,0,0,1,.4,2.306,5.033,5.033,0,0,1-.035.655,1.037,1.037,0,0,1-.127.4.482.482,0,0,1-.247.207,1.158,1.158,0,0,1-.4.057H40a3.362,3.362,0,0,0,.908,2.168,2.7,2.7,0,0,0,1.9.673,3.4,3.4,0,0,0,1.069-.15,5.4,5.4,0,0,0,.8-.333q.351-.184.644-.334a1.337,1.337,0,0,1,.615-.15.737.737,0,0,1,.644.31L47.61-1.863A5.3,5.3,0,0,1,46.42-.834a6.185,6.185,0,0,1-1.311.621A7.106,7.106,0,0,1,43.763.1a10.1,10.1,0,0,1-1.282.086,6.7,6.7,0,0,1-2.352-.408,5.4,5.4,0,0,1-1.921-1.213,5.725,5.725,0,0,1-1.3-2,7.477,7.477,0,0,1-.477-2.783,6.3,6.3,0,0,1,.408-2.265,5.58,5.58,0,0,1,1.173-1.875,5.585,5.585,0,0,1,1.852-1.276A6.111,6.111,0,0,1,42.32-12.109Zm.069,2.461a2.148,2.148,0,0,0-1.6.581,3.026,3.026,0,0,0-.759,1.673h4.45a3.147,3.147,0,0,0-.109-.828,2.007,2.007,0,0,0-.356-.719,1.814,1.814,0,0,0-.65-.512A2.222,2.222,0,0,0,42.389-9.648Zm14.628.333A.922.922,0,0,1,56.724-9a.769.769,0,0,1-.4.092,1.267,1.267,0,0,1-.506-.109l-.546-.236a5.951,5.951,0,0,0-.661-.236,2.952,2.952,0,0,0-.84-.109,1.776,1.776,0,0,0-1.041.259.834.834,0,0,0-.362.719.72.72,0,0,0,.236.552,2.163,2.163,0,0,0,.627.385,8.644,8.644,0,0,0,.885.316q.495.149,1.012.333a9.012,9.012,0,0,1,1.012.431,3.785,3.785,0,0,1,.885.61,2.721,2.721,0,0,1,.627.88,2.979,2.979,0,0,1,.236,1.242,4.084,4.084,0,0,1-.322,1.633,3.468,3.468,0,0,1-.96,1.288,4.541,4.541,0,0,1-1.576.839,7.1,7.1,0,0,1-2.156.3A6.561,6.561,0,0,1,51.658.069a8.443,8.443,0,0,1-1.179-.31,6.422,6.422,0,0,1-1.052-.466,4.563,4.563,0,0,1-.828-.581L49.427-2.6a1.192,1.192,0,0,1,.356-.362.99.99,0,0,1,.541-.132,1.125,1.125,0,0,1,.558.138l.535.3a4.458,4.458,0,0,0,.673.3,2.917,2.917,0,0,0,.972.138,2.468,2.468,0,0,0,.7-.086,1.236,1.236,0,0,0,.46-.236.941.941,0,0,0,.253-.333.938.938,0,0,0,.08-.379.775.775,0,0,0-.242-.586,2.1,2.1,0,0,0-.632-.4,7.711,7.711,0,0,0-.891-.311q-.5-.144-1.018-.328a8.175,8.175,0,0,1-1.018-.443,3.5,3.5,0,0,1-.891-.656,3.046,3.046,0,0,1-.632-.972,3.589,3.589,0,0,1-.242-1.392,3.626,3.626,0,0,1,.293-1.443,3.351,3.351,0,0,1,.88-1.2,4.32,4.32,0,0,1,1.472-.822,6.364,6.364,0,0,1,2.07-.3,6.655,6.655,0,0,1,1.248.115,6.377,6.377,0,0,1,1.133.322,5.425,5.425,0,0,1,.966.489,4.639,4.639,0,0,1,.77.615Zm7.015,9.5a4.2,4.2,0,0,1-1.5-.247,2.981,2.981,0,0,1-1.092-.7,2.99,2.99,0,0,1-.673-1.1,4.252,4.252,0,0,1-.23-1.437V-9.465H59.524a.675.675,0,0,1-.472-.178.673.673,0,0,1-.2-.523v-1.391l1.9-.368.7-2.91a.708.708,0,0,1,.782-.552H64.1V-11.9H67v2.438H64.1v5.923a1.115,1.115,0,0,0,.2.684.68.68,0,0,0,.581.27,1.141,1.141,0,0,0,.328-.04,1.3,1.3,0,0,0,.23-.092q.1-.052.184-.092a.471.471,0,0,1,.2-.04.415.415,0,0,1,.259.075.925.925,0,0,1,.2.236L67.367-.851a4.92,4.92,0,0,1-1.552.776A6.17,6.17,0,0,1,64.032.184Zm17.342-2.99A6.614,6.614,0,0,0,82.8-2.944a6.981,6.981,0,0,0,1.173-.368V-5.853H82.317a.8.8,0,0,1-.575-.2.651.651,0,0,1-.207-.494V-8.682h5.957V-1.61a8.779,8.779,0,0,1-1.34.811,8.654,8.654,0,0,1-1.483.558A11.045,11.045,0,0,1,82.99.08a16.636,16.636,0,0,1-1.915.1,8.785,8.785,0,0,1-3.4-.65A8.272,8.272,0,0,1,74.963-2.26a8.257,8.257,0,0,1-1.794-2.714,8.828,8.828,0,0,1-.65-3.41,9.283,9.283,0,0,1,.621-3.444,7.757,7.757,0,0,1,1.777-2.708,8.061,8.061,0,0,1,2.794-1.771,10.1,10.1,0,0,1,3.663-.633,10.668,10.668,0,0,1,1.966.173,9.675,9.675,0,0,1,1.7.472,7.806,7.806,0,0,1,1.42.713,7.649,7.649,0,0,1,1.15.9L86.48-12.972a1.252,1.252,0,0,1-.385.379.915.915,0,0,1-.489.138,1.346,1.346,0,0,1-.713-.23q-.46-.276-.868-.477a5.3,5.3,0,0,0-.834-.328,5.464,5.464,0,0,0-.9-.184,8.8,8.8,0,0,0-1.058-.057,4.826,4.826,0,0,0-1.967.385,4.216,4.216,0,0,0-1.489,1.087,4.915,4.915,0,0,0-.949,1.685A6.791,6.791,0,0,0,76.5-8.384a7.051,7.051,0,0,0,.368,2.369,5.09,5.09,0,0,0,1.018,1.748A4.321,4.321,0,0,0,79.425-3.18,4.99,4.99,0,0,0,81.374-2.806Zm13.8-9.3a6.887,6.887,0,0,1,2.472.425,5.423,5.423,0,0,1,1.915,1.219A5.491,5.491,0,0,1,100.8-8.539a6.949,6.949,0,0,1,.443,2.547,7.075,7.075,0,0,1-.443,2.57,5.529,5.529,0,0,1-1.242,1.944,5.449,5.449,0,0,1-1.915,1.23,6.805,6.805,0,0,1-2.472.431,6.885,6.885,0,0,1-2.49-.431,5.556,5.556,0,0,1-1.932-1.23A5.449,5.449,0,0,1,89.5-3.421a7.075,7.075,0,0,1-.443-2.57A6.949,6.949,0,0,1,89.5-8.539a5.411,5.411,0,0,1,1.253-1.926,5.53,5.53,0,0,1,1.932-1.219A6.968,6.968,0,0,1,95.174-12.109Zm0,9.648a2.025,2.025,0,0,0,1.811-.868,4.8,4.8,0,0,0,.581-2.639A4.771,4.771,0,0,0,96.985-8.6a2.029,2.029,0,0,0-1.811-.863,2.08,2.08,0,0,0-1.852.863,4.734,4.734,0,0,0-.587,2.634,4.764,4.764,0,0,0,.587,2.639A2.075,2.075,0,0,0,95.174-2.461Zm13.34-9.648a6.887,6.887,0,0,1,2.472.425,5.423,5.423,0,0,1,1.915,1.219,5.491,5.491,0,0,1,1.242,1.926,6.949,6.949,0,0,1,.443,2.547,7.075,7.075,0,0,1-.443,2.57A5.529,5.529,0,0,1,112.9-1.478a5.449,5.449,0,0,1-1.915,1.23,6.805,6.805,0,0,1-2.472.431,6.885,6.885,0,0,1-2.49-.431,5.556,5.556,0,0,1-1.932-1.23,5.449,5.449,0,0,1-1.253-1.944,7.075,7.075,0,0,1-.443-2.57,6.949,6.949,0,0,1,.443-2.547,5.411,5.411,0,0,1,1.253-1.926,5.53,5.53,0,0,1,1.932-1.219A6.968,6.968,0,0,1,108.514-12.109Zm0,9.648a2.025,2.025,0,0,0,1.811-.868,4.8,4.8,0,0,0,.581-2.639,4.771,4.771,0,0,0-.581-2.634,2.029,2.029,0,0,0-1.811-.863,2.08,2.08,0,0,0-1.852.863,4.734,4.734,0,0,0-.587,2.634,4.764,4.764,0,0,0,.587,2.639A2.075,2.075,0,0,0,108.514-2.461ZM124.913,0a.984.984,0,0,1-.558-.149.8.8,0,0,1-.316-.448l-.276-.909a6.991,6.991,0,0,1-.747.69,4.7,4.7,0,0,1-.845.535,4.47,4.47,0,0,1-.977.345,5.033,5.033,0,0,1-1.133.121,3.673,3.673,0,0,1-1.725-.414,3.975,3.975,0,0,1-1.368-1.2,6.035,6.035,0,0,1-.9-1.915,9.3,9.3,0,0,1-.328-2.582A8.052,8.052,0,0,1,116.1-8.4a6.076,6.076,0,0,1,1.041-1.978,4.833,4.833,0,0,1,1.616-1.305,4.589,4.589,0,0,1,2.081-.472,4,4,0,0,1,1.558.27,4.5,4.5,0,0,1,1.156.707v-6.037h3.565V0ZM121.3-2.553a3.081,3.081,0,0,0,.707-.075,2.486,2.486,0,0,0,.581-.213,2.534,2.534,0,0,0,.5-.345,4.327,4.327,0,0,0,.466-.483v-5.06a2.357,2.357,0,0,0-.88-.627,2.727,2.727,0,0,0-.983-.178,2.1,2.1,0,0,0-.909.2,1.851,1.851,0,0,0-.719.627,3.338,3.338,0,0,0-.477,1.121,6.966,6.966,0,0,0-.173,1.668,7.724,7.724,0,0,0,.138,1.587,3.269,3.269,0,0,0,.385,1.041,1.5,1.5,0,0,0,.592.569A1.7,1.7,0,0,0,121.3-2.553Zm13.685-9.556a6.14,6.14,0,0,1,2.168.368,4.713,4.713,0,0,1,1.691,1.069,4.882,4.882,0,0,1,1.1,1.719,6.309,6.309,0,0,1,.4,2.306,5.034,5.034,0,0,1-.035.655,1.038,1.038,0,0,1-.126.4.482.482,0,0,1-.247.207,1.158,1.158,0,0,1-.4.057h-6.877a3.362,3.362,0,0,0,.909,2.168,2.7,2.7,0,0,0,1.9.673,3.4,3.4,0,0,0,1.07-.15,5.4,5.4,0,0,0,.8-.333q.351-.184.644-.334a1.337,1.337,0,0,1,.615-.15.737.737,0,0,1,.644.31l1.035,1.277a5.3,5.3,0,0,1-1.19,1.029,6.185,6.185,0,0,1-1.311.621A7.106,7.106,0,0,1,136.43.1a10.1,10.1,0,0,1-1.282.086A6.7,6.7,0,0,1,132.8-.224a5.4,5.4,0,0,1-1.921-1.213,5.725,5.725,0,0,1-1.3-2,7.477,7.477,0,0,1-.477-2.783,6.3,6.3,0,0,1,.408-2.265,5.58,5.58,0,0,1,1.173-1.875,5.585,5.585,0,0,1,1.852-1.276A6.111,6.111,0,0,1,134.987-12.109Zm.069,2.461a2.148,2.148,0,0,0-1.6.581,3.026,3.026,0,0,0-.759,1.673h4.451a3.147,3.147,0,0,0-.109-.828,2.007,2.007,0,0,0-.357-.719,1.814,1.814,0,0,0-.65-.512A2.222,2.222,0,0,0,135.056-9.648Zm11.017-7.567V0h-3.565V-17.215Zm6.555,0V0h-3.565V-17.215Z" transform="translate(142.109 470.182)" fill="#394049"/>
          <path id="Path_163" data-name="Path 163" d="M10.38-7.992q.24.456.462.948t.426,1.008q.2-.528.432-1.026t.468-.966l4.488-8.832a1.467,1.467,0,0,1,.246-.354.806.806,0,0,1,.282-.186,1.182,1.182,0,0,1,.354-.072q.2-.012.462-.012h3.1V0H17.52V-10.056q0-.732.072-1.584L12.96-2.652a1.526,1.526,0,0,1-.582.636,1.61,1.61,0,0,1-.834.216h-.552a1.61,1.61,0,0,1-.834-.216,1.526,1.526,0,0,1-.582-.636l-4.656-9q.048.42.072.834t.024.762V0H1.44V-17.484h3.1q.264,0,.462.012a1.182,1.182,0,0,1,.354.072.806.806,0,0,1,.282.186,1.467,1.467,0,0,1,.246.354ZM29.3-12.636a6.407,6.407,0,0,1,2.262.384,4.917,4.917,0,0,1,1.764,1.116,5.094,5.094,0,0,1,1.152,1.794A6.583,6.583,0,0,1,34.9-6.936a5.252,5.252,0,0,1-.036.684,1.083,1.083,0,0,1-.132.42.5.5,0,0,1-.258.216,1.208,1.208,0,0,1-.414.06H26.88a3.508,3.508,0,0,0,.948,2.262,2.821,2.821,0,0,0,1.98.7,3.544,3.544,0,0,0,1.116-.156,5.63,5.63,0,0,0,.834-.348q.366-.192.672-.348a1.4,1.4,0,0,1,.642-.156.769.769,0,0,1,.672.324l1.08,1.332A5.53,5.53,0,0,1,33.582-.87a6.454,6.454,0,0,1-1.368.648A7.415,7.415,0,0,1,30.81.1a10.536,10.536,0,0,1-1.338.09,6.986,6.986,0,0,1-2.454-.426,5.639,5.639,0,0,1-2-1.266,5.974,5.974,0,0,1-1.356-2.088,7.8,7.8,0,0,1-.5-2.9,6.572,6.572,0,0,1,.426-2.364,5.822,5.822,0,0,1,1.224-1.956,5.828,5.828,0,0,1,1.932-1.332A6.377,6.377,0,0,1,29.3-12.636Zm.072,2.568a2.242,2.242,0,0,0-1.668.606,3.157,3.157,0,0,0-.792,1.746H31.56a3.284,3.284,0,0,0-.114-.864,2.1,2.1,0,0,0-.372-.75,1.893,1.893,0,0,0-.678-.534A2.319,2.319,0,0,0,29.376-10.068Zm11.5-7.9V0h-3.72V-17.964Zm6.84,5.52V0h-3.72V-12.444Zm.432-3.408a1.966,1.966,0,0,1-.18.834,2.2,2.2,0,0,1-.492.684,2.409,2.409,0,0,1-.726.468,2.253,2.253,0,0,1-.882.174,2.094,2.094,0,0,1-.852-.174,2.4,2.4,0,0,1-.7-.468,2.16,2.16,0,0,1-.48-.684,2.024,2.024,0,0,1-.174-.834,2.094,2.094,0,0,1,.174-.852,2.211,2.211,0,0,1,.48-.7,2.248,2.248,0,0,1,.7-.468,2.159,2.159,0,0,1,.852-.168,2.323,2.323,0,0,1,.882.168,2.265,2.265,0,0,1,.726.468,2.246,2.246,0,0,1,.492.7A2.035,2.035,0,0,1,48.144-15.852ZM58.32-9.72a.962.962,0,0,1-.306.324.8.8,0,0,1-.414.1,1.323,1.323,0,0,1-.528-.114L56.5-9.66a6.21,6.21,0,0,0-.69-.246,3.08,3.08,0,0,0-.876-.114,1.853,1.853,0,0,0-1.086.27.87.87,0,0,0-.378.75.752.752,0,0,0,.246.576,2.257,2.257,0,0,0,.654.4,9.02,9.02,0,0,0,.924.33q.516.156,1.056.348a9.4,9.4,0,0,1,1.056.45,3.95,3.95,0,0,1,.924.636,2.839,2.839,0,0,1,.654.918,3.109,3.109,0,0,1,.246,1.3,4.261,4.261,0,0,1-.336,1.7,3.618,3.618,0,0,1-1,1.344A4.738,4.738,0,0,1,56.25-.12,7.405,7.405,0,0,1,54,.192a6.847,6.847,0,0,1-1.272-.12A8.811,8.811,0,0,1,51.5-.252a6.7,6.7,0,0,1-1.1-.486,4.762,4.762,0,0,1-.864-.606L50.4-2.712a1.244,1.244,0,0,1,.372-.378,1.033,1.033,0,0,1,.564-.138,1.174,1.174,0,0,1,.582.144l.558.312a4.651,4.651,0,0,0,.7.312,3.044,3.044,0,0,0,1.014.144,2.576,2.576,0,0,0,.732-.09,1.29,1.29,0,0,0,.48-.246A.982.982,0,0,0,55.668-3a.978.978,0,0,0,.084-.4.808.808,0,0,0-.252-.612,2.2,2.2,0,0,0-.66-.414,8.047,8.047,0,0,0-.93-.324q-.522-.15-1.062-.342a8.53,8.53,0,0,1-1.062-.462,3.653,3.653,0,0,1-.93-.684,3.178,3.178,0,0,1-.66-1.014A3.745,3.745,0,0,1,49.944-8.7a3.783,3.783,0,0,1,.306-1.506,3.5,3.5,0,0,1,.918-1.254,4.507,4.507,0,0,1,1.536-.858,6.641,6.641,0,0,1,2.16-.318,6.944,6.944,0,0,1,1.3.12,6.654,6.654,0,0,1,1.182.336,5.661,5.661,0,0,1,1.008.51,4.841,4.841,0,0,1,.8.642Zm10.56,0a.962.962,0,0,1-.306.324.8.8,0,0,1-.414.1,1.323,1.323,0,0,1-.528-.114l-.57-.246a6.21,6.21,0,0,0-.69-.246,3.08,3.08,0,0,0-.876-.114,1.853,1.853,0,0,0-1.086.27.87.87,0,0,0-.378.75.752.752,0,0,0,.246.576,2.257,2.257,0,0,0,.654.4,9.02,9.02,0,0,0,.924.33q.516.156,1.056.348a9.4,9.4,0,0,1,1.056.45,3.95,3.95,0,0,1,.924.636,2.839,2.839,0,0,1,.654.918,3.109,3.109,0,0,1,.246,1.3,4.261,4.261,0,0,1-.336,1.7,3.618,3.618,0,0,1-1,1.344A4.739,4.739,0,0,1,66.81-.12a7.405,7.405,0,0,1-2.25.312,6.847,6.847,0,0,1-1.272-.12,8.811,8.811,0,0,1-1.23-.324,6.7,6.7,0,0,1-1.1-.486,4.762,4.762,0,0,1-.864-.606l.864-1.368a1.244,1.244,0,0,1,.372-.378,1.033,1.033,0,0,1,.564-.138,1.174,1.174,0,0,1,.582.144l.558.312a4.652,4.652,0,0,0,.7.312,3.044,3.044,0,0,0,1.014.144,2.576,2.576,0,0,0,.732-.09,1.29,1.29,0,0,0,.48-.246A.982.982,0,0,0,66.228-3a.978.978,0,0,0,.084-.4.808.808,0,0,0-.252-.612,2.2,2.2,0,0,0-.66-.414,8.046,8.046,0,0,0-.93-.324q-.522-.15-1.062-.342a8.53,8.53,0,0,1-1.062-.462,3.653,3.653,0,0,1-.93-.684,3.178,3.178,0,0,1-.66-1.014A3.745,3.745,0,0,1,60.5-8.7a3.783,3.783,0,0,1,.306-1.506,3.5,3.5,0,0,1,.918-1.254,4.507,4.507,0,0,1,1.536-.858,6.641,6.641,0,0,1,2.16-.318,6.944,6.944,0,0,1,1.3.12,6.654,6.654,0,0,1,1.182.336,5.661,5.661,0,0,1,1.008.51,4.841,4.841,0,0,1,.8.642ZM80.424,0a1.743,1.743,0,0,1-.8-.144,1.1,1.1,0,0,1-.45-.6l-.264-.684q-.468.4-.9.7a5.7,5.7,0,0,1-.894.51,4.415,4.415,0,0,1-.984.312,6.056,6.056,0,0,1-1.158.1A5.077,5.077,0,0,1,73.428-.03a3.23,3.23,0,0,1-1.182-.654,2.876,2.876,0,0,1-.75-1.074,3.873,3.873,0,0,1-.264-1.482A3.108,3.108,0,0,1,71.568-4.6a3.345,3.345,0,0,1,1.164-1.266,7.4,7.4,0,0,1,2.232-.954,14.976,14.976,0,0,1,3.54-.432v-.528a2.282,2.282,0,0,0-.45-1.578,1.655,1.655,0,0,0-1.278-.486A3.39,3.39,0,0,0,75.7-9.7a4.855,4.855,0,0,0-.75.324q-.33.18-.642.324a1.763,1.763,0,0,1-.744.144,1.125,1.125,0,0,1-.654-.186,1.382,1.382,0,0,1-.426-.462l-.672-1.164a7.564,7.564,0,0,1,2.5-1.482,8.771,8.771,0,0,1,2.946-.486,5.388,5.388,0,0,1,2.034.366,4.377,4.377,0,0,1,1.536,1.02,4.457,4.457,0,0,1,.966,1.554,5.585,5.585,0,0,1,.336,1.968V0ZM76.152-2.268a2.952,2.952,0,0,0,1.26-.252A3.839,3.839,0,0,0,78.5-3.336V-5.064a12.35,12.35,0,0,0-1.836.192,4.46,4.46,0,0,0-1.14.36,1.38,1.38,0,0,0-.582.492,1.164,1.164,0,0,0-.162.6,1.043,1.043,0,0,0,.348.894A1.7,1.7,0,0,0,76.152-2.268Z" transform="translate(112.109 336.182)" fill="#394049"/>
          <path id="Path_162" data-name="Path 162" d="M5.5-3.24h6.48V0H1.44V-17.484H5.5Zm13.464-9.4a7.187,7.187,0,0,1,2.58.444,5.659,5.659,0,0,1,2,1.272,5.73,5.73,0,0,1,1.3,2.01A7.251,7.251,0,0,1,25.3-6.252a7.383,7.383,0,0,1-.462,2.682,5.77,5.77,0,0,1-1.3,2.028,5.686,5.686,0,0,1-2,1.284,7.1,7.1,0,0,1-2.58.45,7.184,7.184,0,0,1-2.6-.45,5.8,5.8,0,0,1-2.016-1.284A5.686,5.686,0,0,1,13.038-3.57a7.383,7.383,0,0,1-.462-2.682,7.251,7.251,0,0,1,.462-2.658,5.647,5.647,0,0,1,1.308-2.01,5.77,5.77,0,0,1,2.016-1.272A7.271,7.271,0,0,1,18.96-12.636Zm0,10.068a2.113,2.113,0,0,0,1.89-.906,5.011,5.011,0,0,0,.606-2.754,4.979,4.979,0,0,0-.606-2.748,2.118,2.118,0,0,0-1.89-.9,2.17,2.17,0,0,0-1.932.9,4.939,4.939,0,0,0-.612,2.748,4.971,4.971,0,0,0,.612,2.754A2.165,2.165,0,0,0,18.96-2.568Zm11.856-9.876v7.9a2.171,2.171,0,0,0,.42,1.428,1.517,1.517,0,0,0,1.236.5,2.651,2.651,0,0,0,1.146-.252,4.275,4.275,0,0,0,1.038-.708v-8.868h3.72V0h-2.3a.875.875,0,0,1-.912-.624l-.228-.72a7.221,7.221,0,0,1-.744.63,4.553,4.553,0,0,1-.822.48,4.91,4.91,0,0,1-.942.312,5.005,5.005,0,0,1-1.1.114,4.357,4.357,0,0,1-1.806-.354,3.716,3.716,0,0,1-1.326-.99,4.318,4.318,0,0,1-.816-1.5,6.2,6.2,0,0,1-.276-1.9v-7.9Zm14.28,0V0h-3.72V-12.444Zm.432-3.408a1.966,1.966,0,0,1-.18.834,2.2,2.2,0,0,1-.492.684,2.409,2.409,0,0,1-.726.468,2.253,2.253,0,0,1-.882.174,2.094,2.094,0,0,1-.852-.174,2.4,2.4,0,0,1-.7-.468,2.16,2.16,0,0,1-.48-.684,2.024,2.024,0,0,1-.174-.834,2.094,2.094,0,0,1,.174-.852,2.211,2.211,0,0,1,.48-.7,2.248,2.248,0,0,1,.7-.468,2.159,2.159,0,0,1,.852-.168,2.323,2.323,0,0,1,.882.168,2.265,2.265,0,0,1,.726.468,2.246,2.246,0,0,1,.492.7A2.035,2.035,0,0,1,45.528-15.852ZM55.7-9.72A.962.962,0,0,1,55.4-9.4a.8.8,0,0,1-.414.1,1.323,1.323,0,0,1-.528-.114l-.57-.246a6.21,6.21,0,0,0-.69-.246,3.08,3.08,0,0,0-.876-.114,1.853,1.853,0,0,0-1.086.27.87.87,0,0,0-.378.75.752.752,0,0,0,.246.576,2.257,2.257,0,0,0,.654.4,9.02,9.02,0,0,0,.924.33q.516.156,1.056.348a9.4,9.4,0,0,1,1.056.45,3.95,3.95,0,0,1,.924.636,2.839,2.839,0,0,1,.654.918,3.109,3.109,0,0,1,.246,1.3,4.261,4.261,0,0,1-.336,1.7,3.618,3.618,0,0,1-1,1.344,4.739,4.739,0,0,1-1.644.876,7.405,7.405,0,0,1-2.25.312,6.847,6.847,0,0,1-1.272-.12,8.811,8.811,0,0,1-1.23-.324,6.7,6.7,0,0,1-1.1-.486,4.762,4.762,0,0,1-.864-.606l.864-1.368a1.244,1.244,0,0,1,.372-.378,1.033,1.033,0,0,1,.564-.138,1.174,1.174,0,0,1,.582.144l.558.312a4.652,4.652,0,0,0,.7.312,3.044,3.044,0,0,0,1.014.144,2.576,2.576,0,0,0,.732-.09,1.29,1.29,0,0,0,.48-.246A.982.982,0,0,0,53.052-3a.978.978,0,0,0,.084-.4.808.808,0,0,0-.252-.612,2.2,2.2,0,0,0-.66-.414,8.047,8.047,0,0,0-.93-.324q-.522-.15-1.062-.342A8.53,8.53,0,0,1,49.17-5.55a3.653,3.653,0,0,1-.93-.684,3.178,3.178,0,0,1-.66-1.014A3.745,3.745,0,0,1,47.328-8.7a3.783,3.783,0,0,1,.306-1.506,3.5,3.5,0,0,1,.918-1.254,4.507,4.507,0,0,1,1.536-.858,6.641,6.641,0,0,1,2.16-.318,6.944,6.944,0,0,1,1.3.12,6.654,6.654,0,0,1,1.182.336,5.661,5.661,0,0,1,1.008.51,4.841,4.841,0,0,1,.8.642Z" transform="translate(141.109 193.182)" fill="#394049"/>
          <g transform="matrix(1, 0, 0, 1, -258.89, -144.82)" filter="url(#Rectangle_235)">
            <g id="Rectangle_235-2" data-name="Rectangle 235" transform="translate(447 145)" fill="#fff" stroke="#fafbff" stroke-width="1">
              <rect width="335" height="608" rx="10" stroke="none"/>
              <rect x="0.5" y="0.5" width="334" height="607" rx="9.5" fill="none"/>
            </g>
          </g>
          <rect id="Rectangle_237" data-name="Rectangle 237" width="139" height="11" rx="3" transform="translate(287.109 124.182)" fill="#afb5bd"/>
          <rect id="Rectangle_374" data-name="Rectangle 374" width="185" height="12" rx="3" transform="translate(264.109 541.182)" fill="#afb5bd"/>
          <rect id="Rectangle_375" data-name="Rectangle 375" width="168" height="12" rx="3" transform="translate(273.109 564.182)" fill="#afb5bd"/>
          <rect id="Rectangle_271" data-name="Rectangle 271" width="295" height="1" rx="0.5" transform="translate(209.109 426.182)" fill="rgba(175,181,189,0.29)"/>
          <rect id="Rectangle_239" data-name="Rectangle 239" width="132" height="11" rx="3" transform="translate(276.109 275.182)" fill="#afb5bd"/>
          <rect id="Rectangle_244" data-name="Rectangle 244" width="149" height="12" rx="3" transform="translate(276.109 344.182)" fill="#afb5bd"/>
          <rect id="Rectangle_373" data-name="Rectangle 373" width="65" height="12" rx="3" transform="translate(276.109 379.182)" fill="#afb5bd"/>
          <rect id="Rectangle_241" data-name="Rectangle 241" width="118" height="11" rx="3" transform="translate(276.109 310.182)" fill="#afb5bd"/>
          <path id="Path_161" data-name="Path 161" d="M27.944-37.212a4.492,4.492,0,0,1-.28,1.624,3.3,3.3,0,0,1-.882,1.274,4.048,4.048,0,0,1-1.582.84,8.251,8.251,0,0,1-2.352.294H13.1l-1.148,6.748q1.148-.2,2.212-.294t2.072-.1a15.3,15.3,0,0,1,5.684.98,11.984,11.984,0,0,1,4.144,2.674A11.1,11.1,0,0,1,28.6-19.194a13.827,13.827,0,0,1,.854,4.886A14.977,14.977,0,0,1,28.294-8.33,13.9,13.9,0,0,1,25.06-3.668,14.531,14.531,0,0,1,20.118-.63,17.743,17.743,0,0,1,13.832.448a16.7,16.7,0,0,1-3.794-.42A18.279,18.279,0,0,1,6.65-1.106,18.125,18.125,0,0,1,3.724-2.758a19.342,19.342,0,0,1-2.436-2L3.976-8.344a2.923,2.923,0,0,1,.98-.854,2.552,2.552,0,0,1,1.2-.294,2.942,2.942,0,0,1,1.582.462L9.366-8.022a12.084,12.084,0,0,0,2.058.994,8.232,8.232,0,0,0,2.912.448A6.986,6.986,0,0,0,17.3-7.154a5.328,5.328,0,0,0,2-1.568,6.41,6.41,0,0,0,1.12-2.324,11.132,11.132,0,0,0,.35-2.842A5.857,5.857,0,0,0,19.1-18.41a6.753,6.753,0,0,0-4.76-1.554A14.561,14.561,0,0,0,8.96-18.928L3.584-20.384,7.056-40.8H27.944Zm32.48,0a4.492,4.492,0,0,1-.28,1.624,3.3,3.3,0,0,1-.882,1.274,4.048,4.048,0,0,1-1.582.84,8.251,8.251,0,0,1-2.352.294H45.584l-1.148,6.748q1.148-.2,2.212-.294t2.072-.1a15.3,15.3,0,0,1,5.684.98,11.984,11.984,0,0,1,4.144,2.674,11.1,11.1,0,0,1,2.534,3.976,13.827,13.827,0,0,1,.854,4.886A14.977,14.977,0,0,1,60.774-8.33,13.9,13.9,0,0,1,57.54-3.668,14.532,14.532,0,0,1,52.6-.63,17.743,17.743,0,0,1,46.312.448a16.7,16.7,0,0,1-3.794-.42A18.279,18.279,0,0,1,39.13-1.106,18.125,18.125,0,0,1,36.2-2.758a19.342,19.342,0,0,1-2.436-2l2.688-3.584a2.923,2.923,0,0,1,.98-.854,2.552,2.552,0,0,1,1.2-.294,2.942,2.942,0,0,1,1.582.462l1.624,1.008a12.083,12.083,0,0,0,2.058.994,8.232,8.232,0,0,0,2.912.448,6.986,6.986,0,0,0,2.968-.574,5.328,5.328,0,0,0,2-1.568,6.41,6.41,0,0,0,1.12-2.324,11.132,11.132,0,0,0,.35-2.842,5.857,5.857,0,0,0-1.68-4.522,6.753,6.753,0,0,0-4.76-1.554,14.561,14.561,0,0,0-5.376,1.036l-5.376-1.456L39.536-40.8H60.424Zm21.392-4.032a15.834,15.834,0,0,1,5.446.882,12.192,12.192,0,0,1,4.13,2.45,10.549,10.549,0,0,1,2.618,3.738,12.224,12.224,0,0,1,.91,4.774,13.12,13.12,0,0,1-.63,4.144,16.325,16.325,0,0,1-1.722,3.626A25.333,25.333,0,0,1,90.034-18.3q-1.442,1.61-3.066,3.262L78.988-6.86a29.077,29.077,0,0,1,3.038-.714A16.137,16.137,0,0,1,84.84-7.84h7.616a3.083,3.083,0,0,1,2.212.77,2.668,2.668,0,0,1,.812,2.03V0H66.808V-2.8a5.092,5.092,0,0,1,.336-1.736,4.187,4.187,0,0,1,1.176-1.68L80.08-18.06a38.994,38.994,0,0,0,2.632-2.884,17.879,17.879,0,0,0,1.848-2.7,12.312,12.312,0,0,0,1.092-2.66,10.617,10.617,0,0,0,.364-2.814,5.434,5.434,0,0,0-1.162-3.738,4.508,4.508,0,0,0-3.542-1.3,5.468,5.468,0,0,0-1.792.28,5.383,5.383,0,0,0-1.456.756A5.035,5.035,0,0,0,76.958-32a5.913,5.913,0,0,0-.742,1.4,4.044,4.044,0,0,1-1.134,1.82,2.859,2.859,0,0,1-1.862.56q-.28,0-.6-.028t-.658-.084l-4.592-.812a15.318,15.318,0,0,1,1.722-5.32,12.8,12.8,0,0,1,3.164-3.78A12.837,12.837,0,0,1,76.58-40.5,17.884,17.884,0,0,1,81.816-41.244Z" transform="translate(309.109 106.182)" fill="#c42627"/>
          <circle id="Ellipse_43" data-name="Ellipse 43" cx="32.5" cy="32.5" r="32.5" transform="translate(323.109 450.182)" fill="#afb5bd"/>
        </g>
        <g transform="matrix(1, 0, 0, 1, 126.93, -0.43)" filter="url(#Rectangle_483)">
          <rect id="Rectangle_483-2" data-name="Rectangle 483" width="362" height="49" rx="4" transform="translate(467 311)" fill="#2d7b3d"/>
        </g>
        <g transform="matrix(1, 0, 0, 1, 126.93, -0.43)" filter="url(#Rectangle_484)">
          <path id="Rectangle_484-2" data-name="Rectangle 484" d="M2,0H126a0,0,0,0,1,0,0V49a0,0,0,0,1,0,0H2a2,2,0,0,1-2-2V2A2,2,0,0,1,2,0Z" transform="translate(467 311)" fill="#c42627"/>
        </g>
        <g transform="matrix(1, 0, 0, 1, 126.93, -0.43)" filter="url(#Rectangle_485)">
          <rect id="Rectangle_485-2" data-name="Rectangle 485" width="74" height="49" transform="translate(591 311)" fill="#ee4238"/>
        </g>
        <g transform="matrix(1, 0, 0, 1, 126.93, -0.43)" filter="url(#Rectangle_486)">
          <rect id="Rectangle_486-2" data-name="Rectangle 486" width="51" height="49" transform="translate(664 311)" fill="#f6971e"/>
        </g>
        <g transform="matrix(1, 0, 0, 1, 126.93, -0.43)" filter="url(#Rectangle_487)">
          <rect id="Rectangle_487-2" data-name="Rectangle 487" width="52" height="49" transform="translate(714 311)" fill="#3f9f48"/>
        </g>
      </g>
      <path id="Polygon_1" data-name="Polygon 1" d="M6.463,1.073a.6.6,0,0,1,1.073,0l6.029,12.058a.6.6,0,0,1-.537.868H.971a.6.6,0,0,1-.537-.868Z" transform="translate(1203.42 2043.489) rotate(180)" fill="#c42627"/>
      <path id="Polygon_2" data-name="Polygon 2" d="M6.456,1.165a.6.6,0,0,1,1.087,0L13.6,14.146a.6.6,0,0,1-.544.854H.942A.6.6,0,0,1,.4,14.146Z" transform="translate(1109.42 2156.489) rotate(90)" fill="#afb5bd"/>
      <path id="Polygon_3" data-name="Polygon 3" d="M6.963,1.073a.6.6,0,0,1,1.073,0l6.529,13.058a.6.6,0,0,1-.537.868H.971a.6.6,0,0,1-.537-.868Z" transform="translate(1109.42 2190.489) rotate(90)" fill="#afb5bd"/>
      <path id="Polygon_4" data-name="Polygon 4" d="M6.963,1.073a.6.6,0,0,1,1.073,0l6.529,13.058a.6.6,0,0,1-.537.868H.971a.6.6,0,0,1-.537-.868Z" transform="translate(1109.42 2225.489) rotate(90)" fill="#afb5bd"/>
      <path id="Polygon_5" data-name="Polygon 5" d="M6.963,1.073a.6.6,0,0,1,1.073,0l6.529,13.058a.6.6,0,0,1-.537.868H.971a.6.6,0,0,1-.537-.868Z" transform="translate(1109.42 2260.489) rotate(90)" fill="#afb5bd"/>
    </g>
  </g>
</svg>
